<svg id="Layer_1" data-name="Layer 1" xmlns="http://www.w3.org/2000/svg" viewBox="0 0 1131.68 357.19"><defs><style>.cls-1{fill:#fff;}</style></defs><title>A2 Page</title><path class="cls-1" d="M0,350.11c2.55-.05,5.1-.15,7.65-.15H1124c2.55,0,5.1.1,7.65.15v7.08c-2.35-.11-4.69-.3-7-.3H7c-2.35,0-4.69.19-7,.3Z"/><path class="cls-1" d="M0,107.27c2.35,0,4.71.14,7.06.14q558.78,0,1117.56,0c2.35,0,4.71-.09,7.06-.14v7.08c-2.35,0-4.71-.14-7.06-.14H7.06c-2.35,0-4.71.09-7.06.14Z"/><path class="cls-1" d="M240.48,0c12.35,4.48,15.45,14,14.9,26.06-.51,11.15.14,22.35-.21,33.51C254.74,73.25,245.8,80.87,233,79c-9.09-1.32-15.33-8-15.55-17.77-.32-14.11-.15-28.23-.07-42.34C217.45,8.83,223.76,3.53,232.23,0ZM228.4,39.91c0,6.87-.11,13.74,0,20.61.11,5.43,2.91,8.16,7.89,8.14s7.82-2.79,7.87-8.21q.18-20.61,0-41.21c0-5.18-3.26-8.29-7.94-8.28s-7.72,3.06-7.82,8.35C228.3,26.18,228.41,33.05,228.4,39.91Z"/><path class="cls-1" d="M532.83,0c12.23,4,15.95,12.89,15.29,25.11-.65,11.75-.06,23.56-.18,35.33-.12,11.38-7.78,18.94-18.87,18.88s-18.48-7.59-18.56-19.06c-.08-12,.55-24-.18-35.92C509.58,12.07,513.82,3.81,525.76,0ZM521,39.74c0,6.68-.12,13.36,0,20,.15,5.94,2.88,8.81,8,8.89S537.06,66,537.16,60c.21-13.34.19-26.7,0-40-.08-6-2.95-8.93-7.9-9s-8.11,3.19-8.24,9.31C520.9,26.79,521,33.27,521,39.74Z"/><path class="cls-1" d="M371.33,0c2.82,1.68,5.88,3.07,8.38,5.13,1.9,1.56,3.82,3.78,4.42,6.05.91,3.46,1.53,7.48.53,10.73-.38,1.24-5.57,1-8.8,1.47-.73-2.92-.64-5.72-2-7.21-2-2.22-5-4.78-7.62-4.82-2.29,0-5.86,2.75-6.71,5.08-2.35,6.36-2.2,13.5,7.19,16.29.57.17,1.12.38,1.66.59,16.63,6.52,21.36,16.57,15.93,33.85C381.4,76.42,373.88,80.58,362.89,79c-9-1.29-15.95-8.93-15.63-17.75.05-1.33,2.11-3.21,3.62-3.72,1.91-.65,4.21-.16,6.2-.16,2.76,10.24,4.9,12.33,11.42,11.16a8.14,8.14,0,0,0,4.12-2c4.92-4.83,2.56-18.61-3.62-21.5-2.84-1.32-5.8-2.37-8.69-3.6-9.69-4.11-12.63-9.08-12.43-20.91.18-10,4.29-16,13.17-19.41a14,14,0,0,0,2-1.14Z"/><path class="cls-1" d="M212.33,230.22c-5.56,16.47-11.18,32.92-16.62,49.43-1.12,3.39-2.06,5.65-6.57,5.66s-5.37-2.43-6.46-5.77c-5.4-16.54-11-33-17.59-49.42v78.63c-6.07,0-11.47.18-16.83-.18-.9-.06-2.28-2.44-2.36-3.81-.3-4.89-.15-9.81-.15-14.72q0-53,0-106.06c0-2.49.24-5,.39-8.09,5.34,0,10.24-.37,15,.21,1.6.2,3.55,2.62,4.21,4.44,7,19.34,13.8,38.77,20.67,58.17.84,2.37,1.78,4.71,3.11,8.24,1.3-3.11,2.26-5.13,3-7.23,6.81-19.41,13.69-38.8,20.28-58.29,1.4-4.12,3.23-6.16,7.84-5.64,3.87.44,7.83.09,12.24.09V308.31H214v-78Z"/><path class="cls-1" d="M301.32,252.61v55.84H282.84V176.61c13,0,25.72-.76,38.35.21,13.51,1,22.12,9.54,24.26,22.67,1.51,9.31,1.26,19.08.42,28.52-.65,7.4-5,13.7-11.52,17.69-3.3,2-3.32,4-2.18,7.22,6.12,17.37,12,34.81,18,52.23.31.9.56,1.81,1.14,3.66-6.15,0-11.76.29-17.29-.19-1.39-.12-3.18-2.49-3.74-4.17-4.76-14.31-9.29-28.7-13.88-43.07C313.13,251.14,313.14,251.14,301.32,252.61Zm.09-59.25v30.58c0,12.92,0,12.92,12.84,11.76,9-.82,13-4.52,13.74-13.65a89.59,89.59,0,0,0,0-15.19c-.75-8.8-4.55-12.58-13.31-13.44C310.64,193,306.52,193.36,301.41,193.36Z"/><path class="cls-1" d="M526.6,308.86V175.16c13.93.81,27.68.5,41,2.73,12.31,2.06,19.81,11.63,20.19,23.77.86,27,.89,54.15-.07,81.18-.5,14.31-11.35,23.58-26.42,25.59a99.79,99.79,0,0,1-12.36.41C541.71,308.9,534.47,308.86,526.6,308.86Zm19.21-115.5v98.06c3.85,0,7.34.13,10.82,0,7.88-.36,12.77-4.48,12.87-12.37q.48-36.45,0-72.9c-.09-7.7-4.5-11.87-12.09-12.69C553.79,193,550.07,193.36,545.81,193.36Z"/><path class="cls-1" d="M814,176.56c13,0,25.78-.77,38.39.21,13.72,1.08,21.71,9.75,24.77,23,2.32,10.11,3.09,20.44-.53,30.16a42.08,42.08,0,0,1-10.38,15.1c-3.2,3-3.72,5-2.37,8.84,5.78,16.23,11.29,32.56,16.88,48.86.63,1.81,1.15,3.66,1.75,5.56a16.71,16.71,0,0,1-2.1.46c-17.13,1-17.13,1-22.29-15.27-3.44-10.82-6.92-21.64-10.35-32.47-3.25-10.25-3.29-10.29-15.24-8.29,0,4.51,0,9.17,0,13.84,0,12.36-.09,24.73.05,37.09,0,3.64-.9,5.48-5,5.22-4.43-.28-8.9-.06-13.63-.06Zm18.57,37.91h0c0,3.13-.07,6.27,0,9.41.37,13.22-3,12.17,13,11.73,9.21-.25,13.38-4.85,14.08-14,.16-2.15.26-4.31.28-6.46.2-18.28-4.42-22.75-22.58-21.9a3.87,3.87,0,0,1-.59,0c-3.08-.3-4.18,1.27-4.15,4.18C832.62,203.09,832.57,208.78,832.57,214.47Z"/><path class="cls-1" d="M678.91,280.58h-27c-1.67,8.15-3.15,16.2-5.07,24.14-.38,1.58-2.34,3.79-3.73,3.92-5,.47-10.14.19-15.71.19,5.3-23.49,10.44-46.38,15.63-69.27,4.38-19.29,9-38.53,13.09-57.87,1-4.45,2.54-6.47,7.25-5.88,3.07.38,6.23.07,9.88.07,10.05,44.27,20,88.28,30,132.35a15.48,15.48,0,0,1-2.28.56c-16.46,1-16.44,1-19.45-15.18C680.79,289.39,679.86,285.19,678.91,280.58Zm-3.56-18c-3.21-16.29-6.25-31.77-9.29-47.24l-1.42-.09c-3.08,15.6-6.17,31.19-9.36,47.33Z"/><path class="cls-1" d="M965.93,176.16h19.69c-1.55,4.67-2.91,8.91-4.37,13.12-6.72,19.43-13.56,38.83-20.15,58.31a34.06,34.06,0,0,0-1.69,10.32c-.17,16.65-.07,33.31-.07,50.46H941.18c-.2-1.43-.51-2.91-.6-4.4a33.5,33.5,0,0,1,0-5.3c3-31.54-3-61.46-15.43-90.44-4.37-10.21-7.39-21-11.31-32.33,6.24,0,11.85-.28,17.4.2,1.36.11,3.13,2.49,3.65,4.16,4.35,14,8.45,28.14,12.64,42.21a13.89,13.89,0,0,0,2.91,5.65Q958.19,202.13,965.93,176.16Z"/><path class="cls-1" d="M745.59,176.19h17.6V308.28h-17.6Z"/><path class="cls-1" d="M411.82,290.38v18H393.05c0-5.25-.19-10.27.16-15.26.07-1,2.16-2.58,3.4-2.66C401.44,290.19,406.3,290.38,411.82,290.38Z"/><path class="cls-1" d="M833.81,1.52h10.75V78c-9.63,1.81-9.64,1.82-12.85-6.84-4.56-12.28-9.1-24.57-15-36.8V78.45h-11V1.91c9.71-1.95,10-1.81,13.1,6.7,4.53,12.41,9.05,24.82,15,37Z"/><path class="cls-1" d="M702.87,45.79V2c10.2-2.15,10.6-1.85,10.6,7.73q0,30.61,0,61.24v6.8c-9.36,2.21-9.82,2-12.87-6.29q-6-16.26-12-32.51c-.62-1.69-1.32-3.34-2-5l-1.54.34V78.39h-10.2V2.12c8.66-2.42,9.56-2,12.48,6Q694.31,27,701.27,46Z"/><path class="cls-1" d="M152.64,1.4h10.64V34.11H178V1.53h10.22V78.36H178.11c0-9.12.11-18.27-.08-27.41-.05-2.32-.71-6.39-1.71-6.6a37.23,37.23,0,0,0-11.59,0c-.61.08-1.24,3-1.26,4.63-.12,9.76-.06,19.52-.06,29.5H152.64Z"/><path class="cls-1" d="M309.16,1.46h11.11v19c0,13.34.12,26.68-.06,40-.13,8.94-5,15.74-12.5,18a17.94,17.94,0,0,1-20-6.21c-1.57-2.13-3.27-4.86-3.3-7.33-.26-21-.15-41.9-.15-63.36h10.29V56.55c0,1.38,0,2.75,0,4.12.31,4.67,2.23,8,7.46,8s7.11-3.41,7.12-8.18q0-25.59,0-51.19Z"/><path class="cls-1" d="M947.42,78.54h-9.73V1.63h9.77V34.77l1.28.4a27.78,27.78,0,0,0,2.31-3.46c3.61-7.61,7.15-15.25,10.7-22.89,3.88-8.35,3.87-8.35,14-7.16-4.27,8.59-8.28,17-12.62,25.2a11.1,11.1,0,0,0-.47,10.47c4.85,11.55,9.26,23.28,13.82,35,.76,1.94,1.39,3.94,2.12,6-10.73,1.15-10.71,1.14-14.27-8.32-3.13-8.35-6.31-16.68-9.54-25.18C944.65,54.6,948.85,66.93,947.42,78.54Z"/><path class="cls-1" d="M879.14,78.52H868.71c2-8.71,3.84-17,5.71-25.3q5-22.32,10-44.66c1.82-8.14,1.95-8.23,11-6.64,5.7,25.13,11.44,50.43,17.33,76.36H902.32c-.79-3.49-2-7.37-2.49-11.35-.45-3.61-1.84-5-5.6-5-11.6-.12-11.59-.28-13.76,10.85C880.11,74.67,879.61,76.53,879.14,78.52Zm12.27-53.64-1.45,0c-1.71,8.82-3.41,17.65-5.17,26.74h11.85C894.82,42.3,893.12,33.59,891.41,24.88Z"/><path class="cls-1" d="M781.59,78.15c-10.42,1.45-10.33,1.43-12.49-8.1-.62-2.7-1.49-7.14-3-7.5-4.26-1-8.93-.42-13.41-.07-.72.05-1.58,2-1.87,3.22-1,4.16-1.79,8.38-2.71,12.79h-10a37.1,37.1,0,0,1,.49-5Q746,40.2,753.64,7c.66-2.91.66-6,5.44-6,4.47,0,5.5,2,6.33,5.7C770.64,30.39,776.1,54,781.59,78.15ZM765.49,51.7c-1.82-9.24-3.55-18-5.27-26.79l-1.43,0c-1.72,8.82-3.43,17.63-5.22,26.83Z"/><path class="cls-1" d="M413.14,1.36h32.8v9.42c-5.15,0-10.55.26-15.91-.08-4.73-.3-6.83,1.09-6.48,6.17.37,5.63.08,11.3.08,17.53h19.12V44.51h-19c0,7.36-.17,14.19.19,21,.05,1,2.56,2.66,4,2.74,5.84.31,11.71.13,18,.13v10H413.14Z"/><path class="cls-1" d="M587.34,35.56h19.32v9.82H587.45v33H577.06V1.6h32.11c2.49,8.29,1.87,9.16-6.56,9.17a70.25,70.25,0,0,1-8.83-.06c-5.41-.65-6.82,1.79-6.52,6.78C587.61,23.29,587.34,29.12,587.34,35.56Z"/></svg>