<svg id="Layer_1" data-name="Layer 1" xmlns="http://www.w3.org/2000/svg" viewBox="0 0 805.1 311.93"><defs><style>.cls-1{fill:#fff;}</style></defs><title>A2 Page</title><path class="cls-1" d="M245.8,311.93c-5.25-2.42-7.31-6.82-10.21-11.72-3.48-5.86-2.73-9.06-.75-14.34,1.39-3.73.68-8.38.4-12.59-1.33-20.73-2.88-41.45-4.22-62.17-.18-2.77.39-5.59.58-8.39.63-9.58,3.46-19.66,1.42-28.64-4.26-18.68-11.09-36.78-16.86-55.12l-2.86.22c0,3.57-.09,7.14,0,10.71.84,29.3,2.13,58.6,2.29,87.9,0,7.83-3.36,15.67-5.17,23.5l-5.05-.54c0-3.44,0-6.89,0-10.33.67-36.33,1.2-72.66,2.12-109,.28-11.24.41-22.72,2.72-33.64,5.37-25.36,30.34-46.74,55.88-51.75,33.88-6.64,66.58,1.15,99.69,5.57,25.76,3.44,51.46,11,77.65,5.44,7.2-1.53,14.9-6.42,19.79-12,13.69-15.68,25.65-17.83,41.64-4.19,15.41,13.16,15,13.77,33,.78,3.71-2.67,8-4.54,11.58-7.36,4.08-3.21,8.73-6.43,11.23-10.75C568.23.6,572.39-1.8,587,1.1c14.36,2.84,25.84,10,35.92,20.84,10.72,11.49,22.8,21.75,34.65,32.12,6,5.29,8.12,10.27,2.74,17.15s-11.76,11.71-21.24,12c-8.8.24-17.56,2.53-26.33,2.45-9.66-.09-12.13,4.51-11.65,12.94.2,3.49-.47,7-.79,10.56-1.56,17-5.46,19.33-22.05,11.57-1.38,3.83-3.1,7.44-4,11.24-3.66,15.79-6.21,31.9-11,47.32-1.8,5.79-8,10.91-13.33,14.7-5,3.57-11.65,4.85-17.46,7.39-11.86,5.18-23.13,13.34-37.75,4.44-.68,5.14-1.16,8.14-1.46,11.16-1.15,11.5-2.64,23-3.26,34.49-.74,13.69,2.27,26.3,11.63,37.17,3.94,4.58,6.17,10.63,9.21,16.07-16.75,6.35-28.23-6.73-31.29-22.32-2.23-11.39-2.61-23.13-4.49-34.61-.7-4.29-3.29-8.27-5.52-13.58-8.43,9.63-9.14,20.31-7,29.74s8.47,17.89,13,26.91c-10.53,7-21,4-22-8.65-1.67-20.59-1.82-41.33-1.83-62,0-24-1-25.62-25-22.81-14.61,1.71-28.87,4.22-41.51,13.82-10.47,7.95-21.65,9.66-33.32-.92-13.41-12.16-16.67-11.42-31.58-1.79-2.67,1.72-5.3,3.74-8.25,4.73-7,2.37-10.22,6.77-9.68,14.28.16,2.2-1.27,4.52-2.64,8.94L294.13,225c-11.91,28.75-9.7,38.39,14,61.37-9.21,6.11-15.14,3.41-24.56-1.54-8.37-4.41-7-10-8.29-16.39-3.72-18.82-8-37.54-12-56.3l-4.87-.29C255,228,250.57,244,248.36,260.25c-2.34,17.31.21,34,16.51,46.24l-8.47,5.44Z"/><path class="cls-1" d="M111.48,166.72v11H.51c-.17-3.69-.33-7-.51-11Z"/><path class="cls-1" d="M694.28,177.85v-11.2H805.1v11.2Z"/></svg>